solid OpenSCAD_Model
  facet normal 1 -0 0
    outer loop
      vertex 8.75 -11 15
      vertex 8.75 11 -15
      vertex 8.75 11 15
    endloop
  endfacet
  facet normal 1 0 0
    outer loop
      vertex 8.75 11 -15
      vertex 8.75 -11 15
      vertex 8.75 -11 -15
    endloop
  endfacet
  facet normal 0 0 1
    outer loop
      vertex 8.75 11 15
      vertex 3 6.5 15
      vertex 8.75 -11 15
    endloop
  endfacet
  facet normal 0 0 1
    outer loop
      vertex 8.75 11 15
      vertex -3 6.5 15
      vertex 3 6.5 15
    endloop
  endfacet
  facet normal 0 0 1
    outer loop
      vertex -3 6.5 15
      vertex -8.75 11 15
      vertex -3 -6.5 15
    endloop
  endfacet
  facet normal -0 0 1
    outer loop
      vertex -8.75 11 15
      vertex -3 6.5 15
      vertex 8.75 11 15
    endloop
  endfacet
  facet normal -0 0 1
    outer loop
      vertex 3 -6.5 15
      vertex 8.75 -11 15
      vertex 3 6.5 15
    endloop
  endfacet
  facet normal -0 0 1
    outer loop
      vertex -3 -6.5 15
      vertex 8.75 -11 15
      vertex 3 -6.5 15
    endloop
  endfacet
  facet normal 0 0 1
    outer loop
      vertex -3 -6.5 15
      vertex -8.75 -11 15
      vertex 8.75 -11 15
    endloop
  endfacet
  facet normal 0 0 1
    outer loop
      vertex -8.75 -11 15
      vertex -3 -6.5 15
      vertex -8.75 11 15
    endloop
  endfacet
  facet normal 0 0 -1
    outer loop
      vertex 7.75 -11 -15
      vertex 8.75 11 -15
      vertex 8.75 -11 -15
    endloop
  endfacet
  facet normal -0 0 -1
    outer loop
      vertex 8.75 11 -15
      vertex 7.75 -11 -15
      vertex 7.75 11 -15
    endloop
  endfacet
  facet normal 0 0 -1
    outer loop
      vertex -8.75 -11 -15
      vertex -7.75 11 -15
      vertex -7.75 -11 -15
    endloop
  endfacet
  facet normal -0 0 -1
    outer loop
      vertex -7.75 11 -15
      vertex -8.75 -11 -15
      vertex -8.75 11 -15
    endloop
  endfacet
  facet normal -1 0 0
    outer loop
      vertex -8.75 -11 -15
      vertex -8.75 11 15
      vertex -8.75 11 -15
    endloop
  endfacet
  facet normal -1 -0 0
    outer loop
      vertex -8.75 11 15
      vertex -8.75 -11 -15
      vertex -8.75 -11 15
    endloop
  endfacet
  facet normal 0 1 0
    outer loop
      vertex 8.75 11 15
      vertex 3 11 10
      vertex -8.75 11 15
    endloop
  endfacet
  facet normal 0 1 0
    outer loop
      vertex 8.75 11 15
      vertex 7.75 11 5
      vertex 3 11 10
    endloop
  endfacet
  facet normal 0 1 -0
    outer loop
      vertex 8.75 11 -15
      vertex 7.75 11 5
      vertex 8.75 11 15
    endloop
  endfacet
  facet normal 0 1 0
    outer loop
      vertex 7.75 11 5
      vertex 8.75 11 -15
      vertex 7.75 11 -15
    endloop
  endfacet
  facet normal 0 1 -0
    outer loop
      vertex -3 11 10
      vertex -8.75 11 15
      vertex 3 11 10
    endloop
  endfacet
  facet normal 0 1 0
    outer loop
      vertex -7.75 11 5
      vertex -3 11 10
      vertex -3 11 5
    endloop
  endfacet
  facet normal 0 1 0
    outer loop
      vertex -3 11 10
      vertex -7.75 11 5
      vertex -8.75 11 15
    endloop
  endfacet
  facet normal 0 1 0
    outer loop
      vertex -8.75 11 -15
      vertex -7.75 11 5
      vertex -7.75 11 -15
    endloop
  endfacet
  facet normal 0 1 0
    outer loop
      vertex -7.75 11 5
      vertex -8.75 11 -15
      vertex -8.75 11 15
    endloop
  endfacet
  facet normal 0 1 0
    outer loop
      vertex 3 11 10
      vertex 7.75 11 5
      vertex 3 11 5
    endloop
  endfacet
  facet normal 0 -1 0
    outer loop
      vertex -8.75 -11 15
      vertex -3 -11 10
      vertex 8.75 -11 15
    endloop
  endfacet
  facet normal 0 -1 0
    outer loop
      vertex -8.75 -11 15
      vertex -7.75 -11 5
      vertex -3 -11 10
    endloop
  endfacet
  facet normal 0 -1 0
    outer loop
      vertex -8.75 -11 -15
      vertex -7.75 -11 5
      vertex -8.75 -11 15
    endloop
  endfacet
  facet normal 0 -1 -0
    outer loop
      vertex -7.75 -11 5
      vertex -8.75 -11 -15
      vertex -7.75 -11 -15
    endloop
  endfacet
  facet normal 0 -1 0
    outer loop
      vertex 3 -11 10
      vertex 8.75 -11 15
      vertex -3 -11 10
    endloop
  endfacet
  facet normal 0 -1 0
    outer loop
      vertex 7.75 -11 5
      vertex 3 -11 10
      vertex 3 -11 5
    endloop
  endfacet
  facet normal 0 -1 0
    outer loop
      vertex 3 -11 10
      vertex 7.75 -11 5
      vertex 8.75 -11 15
    endloop
  endfacet
  facet normal 0 -1 0
    outer loop
      vertex 8.75 -11 -15
      vertex 7.75 -11 5
      vertex 7.75 -11 -15
    endloop
  endfacet
  facet normal 0 -1 0
    outer loop
      vertex 7.75 -11 5
      vertex 8.75 -11 -15
      vertex 8.75 -11 15
    endloop
  endfacet
  facet normal 0 -1 -0
    outer loop
      vertex -3 -11 10
      vertex -7.75 -11 5
      vertex -3 -11 5
    endloop
  endfacet
  facet normal -1 0 0
    outer loop
      vertex 7.75 -11 -15
      vertex 7.75 11 5
      vertex 7.75 11 -15
    endloop
  endfacet
  facet normal -1 -0 0
    outer loop
      vertex 7.75 11 5
      vertex 7.75 -11 -15
      vertex 7.75 -11 5
    endloop
  endfacet
  facet normal 0 0 -1
    outer loop
      vertex -7.75 -11 5
      vertex -3 11 5
      vertex -3 -11 5
    endloop
  endfacet
  facet normal -0 0 -1
    outer loop
      vertex -3 11 5
      vertex -7.75 -11 5
      vertex -7.75 11 5
    endloop
  endfacet
  facet normal 0 0 -1
    outer loop
      vertex 3 -11 5
      vertex 7.75 11 5
      vertex 7.75 -11 5
    endloop
  endfacet
  facet normal -0 0 -1
    outer loop
      vertex 7.75 11 5
      vertex 3 -11 5
      vertex 3 11 5
    endloop
  endfacet
  facet normal 1 -0 0
    outer loop
      vertex -7.75 -11 5
      vertex -7.75 11 -15
      vertex -7.75 11 5
    endloop
  endfacet
  facet normal 1 0 0
    outer loop
      vertex -7.75 11 -15
      vertex -7.75 -11 5
      vertex -7.75 -11 -15
    endloop
  endfacet
  facet normal -1 0 0
    outer loop
      vertex 3 11 5
      vertex 3 6.5 10
      vertex 3 11 10
    endloop
  endfacet
  facet normal -1 0 0
    outer loop
      vertex 3 6.5 10
      vertex 3 -6.5 10
      vertex 3 6.5 15
    endloop
  endfacet
  facet normal -1 0 0
    outer loop
      vertex 3 11 5
      vertex 3 -6.5 10
      vertex 3 6.5 10
    endloop
  endfacet
  facet normal -1 0 0
    outer loop
      vertex 3 -11 5
      vertex 3 -6.5 10
      vertex 3 11 5
    endloop
  endfacet
  facet normal -1 -0 0
    outer loop
      vertex 3 -6.5 10
      vertex 3 -11 5
      vertex 3 -11 10
    endloop
  endfacet
  facet normal -1 -0 0
    outer loop
      vertex 3 6.5 15
      vertex 3 -6.5 10
      vertex 3 -6.5 15
    endloop
  endfacet
  facet normal 1 0 0
    outer loop
      vertex -3 6.5 15
      vertex -3 -6.5 15
      vertex -3 6.5 10
    endloop
  endfacet
  facet normal 1 -0 0
    outer loop
      vertex -3 6.5 10
      vertex -3 11 5
      vertex -3 11 10
    endloop
  endfacet
  facet normal 1 0 0
    outer loop
      vertex -3 -6.5 10
      vertex -3 6.5 10
      vertex -3 -6.5 15
    endloop
  endfacet
  facet normal 1 0 0
    outer loop
      vertex -3 6.5 10
      vertex -3 -6.5 10
      vertex -3 11 5
    endloop
  endfacet
  facet normal 1 0 0
    outer loop
      vertex -3 -11 5
      vertex -3 -6.5 10
      vertex -3 -11 10
    endloop
  endfacet
  facet normal 1 0 0
    outer loop
      vertex -3 -6.5 10
      vertex -3 -11 5
      vertex -3 11 5
    endloop
  endfacet
  facet normal 0 -1 0
    outer loop
      vertex -3 6.5 10
      vertex 3 6.5 15
      vertex -3 6.5 15
    endloop
  endfacet
  facet normal 0 -1 -0
    outer loop
      vertex 3 6.5 15
      vertex -3 6.5 10
      vertex 3 6.5 10
    endloop
  endfacet
  facet normal 0 1 -0
    outer loop
      vertex 3 -6.5 10
      vertex -3 -6.5 15
      vertex 3 -6.5 15
    endloop
  endfacet
  facet normal 0 1 0
    outer loop
      vertex -3 -6.5 15
      vertex 3 -6.5 10
      vertex -3 -6.5 10
    endloop
  endfacet
  facet normal 0 0 -1
    outer loop
      vertex -3 -11 10
      vertex 3 -6.5 10
      vertex 3 -11 10
    endloop
  endfacet
  facet normal -0 0 -1
    outer loop
      vertex 3 -6.5 10
      vertex -3 -11 10
      vertex -3 -6.5 10
    endloop
  endfacet
  facet normal 0 0 -1
    outer loop
      vertex -3 6.5 10
      vertex 3 11 10
      vertex 3 6.5 10
    endloop
  endfacet
  facet normal -0 0 -1
    outer loop
      vertex 3 11 10
      vertex -3 6.5 10
      vertex -3 11 10
    endloop
  endfacet
endsolid OpenSCAD_Model
